<svg width="34" height="34" viewBox="0 0 34 34" fill="none" xmlns="http://www.w3.org/2000/svg">
<path d="M0 17C0 26.3888 7.61116 34 17 34C26.3888 34 34 26.3888 34 17C34 7.61116 26.3888 0 17 0C7.61116 0 0 7.61116 0 17Z" fill="#FF0000"/>
<path d="M27.54 11.5C27.4194 11.0247 27.1757 10.5895 26.8333 10.2384C26.491 9.88727 26.0621 9.63259 25.59 9.5C23.88 9 17 9 17 9C17 9 10.12 9 8.41 9.48C7.93787 9.61259 7.50903 9.86727 7.16669 10.2184C6.82434 10.5695 6.58059 11.0047 6.46 11.48C5.85002 15.1213 5.85002 18.8387 6.46 22.48C6.58488 22.9614 6.83614 23.4006 7.18778 23.7522C7.53941 24.1039 7.97865 24.3551 8.46 24.48C10.12 25 17 25 17 25C17 25 23.88 25 25.59 24.52C26.0631 24.3893 26.4929 24.1352 26.8356 23.7838C27.1782 23.4324 27.4213 22.9962 27.54 22.52C28.15 18.8787 28.15 15.1613 27.54 11.52V11.5ZM14.75 20.37V13.62L20.49 17L14.75 20.37Z" fill="white"/>
</svg>
