<svg width="34" height="34" viewBox="0 0 34 34" fill="none" xmlns="http://www.w3.org/2000/svg">
<path d="M0 17C0 26.3888 7.61116 34 17 34C26.3888 34 34 26.3888 34 17C34 7.61116 26.3888 0 17 0C7.61116 0 0 7.61116 0 17Z" fill="url(#paint0_linear_2617_5220)"/>
<path fill-rule="evenodd" clip-rule="evenodd" d="M27 10.73C27 10.674 26.9888 10.6185 26.9671 10.5669C26.9454 10.5153 26.9135 10.4686 26.8735 10.4294C26.8334 10.3903 26.7859 10.3596 26.7338 10.3391C26.6817 10.3185 26.626 10.3087 26.57 10.31H21.93C21.9504 8.9603 21.4491 7.6548 20.5307 6.66557C19.6123 5.67634 18.3475 5.0797 17 5C15.6525 5.0797 14.3877 5.67634 13.4693 6.66557C12.5509 7.6548 12.0496 8.9603 12.07 10.31H7.42C7.30861 10.31 7.20178 10.3542 7.12301 10.433C7.04425 10.5118 7 10.6186 7 10.73V10.73L7.66 25C7.65508 25.0398 7.65508 25.0802 7.66 25.12V25.18C7.7016 25.6538 7.91068 26.0972 8.24973 26.4308C8.58878 26.7643 9.03559 26.9662 9.51 27H24.34C24.8317 26.9843 25.3003 26.788 25.6564 26.4486C26.0124 26.1091 26.2309 25.6504 26.27 25.16V25.16C26.2743 25.1335 26.2743 25.1065 26.27 25.08L27 10.75V10.73ZM17 6.28C17.9954 6.36153 18.9216 6.82184 19.5877 7.56606C20.2538 8.31027 20.6089 9.28167 20.58 10.28H13.42C13.3911 9.28167 13.7462 8.31027 14.4123 7.56606C15.0784 6.82184 16.0046 6.36153 17 6.28V6.28ZM20.67 21.47C20.6058 21.9841 20.4036 22.4712 20.0849 22.8796C19.7663 23.2881 19.343 23.6027 18.86 23.79C18.2485 24.0388 17.5891 24.1482 16.93 24.11C16.0123 24.0856 15.1112 23.8603 14.29 23.45C13.9364 23.2433 13.6017 23.0057 13.29 22.74C13.2 22.67 13.19 22.63 13.29 22.55L13.5 22.25C13.67 22 13.7 21.97 13.72 21.94C13.734 21.9214 13.7521 21.9063 13.7729 21.8958C13.7937 21.8854 13.8167 21.88 13.84 21.88C13.8633 21.88 13.8863 21.8854 13.9071 21.8958C13.9279 21.9063 13.946 21.9214 13.96 21.94V21.94L14 22C14.8405 22.6588 15.8635 23.0429 16.93 23.1C18.37 23.1 19.4 22.45 19.58 21.49C19.76 20.53 18.93 19.49 17.26 18.99C16.5456 18.7588 15.8446 18.4884 15.16 18.18C14.6637 17.9622 14.2451 17.599 13.9595 17.1384C13.6738 16.6778 13.5345 16.1414 13.56 15.6C13.6719 14.83 14.0739 14.1319 14.6836 13.6486C15.2934 13.1653 16.0648 12.9332 16.84 13C17.6433 13.0013 18.4385 13.161 19.18 13.47C19.499 13.6052 19.8066 13.7657 20.1 13.95C20.1202 13.9613 20.1379 13.9767 20.152 13.9951C20.166 14.0135 20.1762 14.0346 20.1818 14.0571C20.1874 14.0795 20.1884 14.1029 20.1846 14.1258C20.1809 14.1486 20.1725 14.1705 20.16 14.19L19.97 14.48L19.79 14.76C19.74 14.84 19.67 14.85 19.57 14.76C18.7683 14.2324 17.8297 13.9509 16.87 13.95C16.3497 13.8874 15.8256 14.0314 15.4105 14.3512C14.9953 14.671 14.7222 15.141 14.65 15.66C14.65 16.54 15.31 17.18 16.78 17.66C19.74 18.66 20.88 19.75 20.67 21.47Z" fill="white"/>
<defs>
<linearGradient id="paint0_linear_2617_5220" x1="0" y1="17" x2="34" y2="17" gradientUnits="userSpaceOnUse">
<stop stop-color="#FF6633"/>
<stop offset="0.33" stop-color="#FD5D32"/>
<stop offset="0.88" stop-color="#F7432E"/>
<stop offset="0.99" stop-color="#F53D2D"/>
</linearGradient>
</defs>
</svg>
