<svg width="34" height="34" viewBox="0 0 34 34" fill="none" xmlns="http://www.w3.org/2000/svg">
<path d="M0 17C0 26.3888 7.61116 34 17 34C26.3888 34 34 26.3888 34 17C34 7.61116 26.3888 0 17 0C7.61116 0 0 7.61116 0 17Z" fill="#FFE815"/>
<path d="M7.72 11.36C6.58827 13.2185 5.99297 15.354 6 17.53C5.93835 20.5095 7.06248 23.3916 9.12524 25.5424C11.188 27.6933 14.0205 28.937 17 29C19.9795 28.937 22.812 27.6933 24.8748 25.5424C26.9375 23.3916 28.0616 20.5095 28 17.53C28.007 15.354 27.4117 13.2185 26.28 11.36H7.72Z" fill="#FDAD1A"/>
<path d="M9.17 11.36C7.68424 13.253 6.88403 15.5937 6.9 18C6.87883 19.3474 7.12329 20.6858 7.61943 21.9387C8.11557 23.1916 8.85367 24.3345 9.79158 25.3021C10.7295 26.2698 11.8488 27.0431 13.0857 27.5781C14.3225 28.1131 15.6526 28.3992 17 28.42C19.7037 28.3518 22.2712 27.2188 24.1439 25.2675C26.0166 23.3161 27.043 20.7042 27 18C27.0063 15.6027 26.2029 13.2736 24.72 11.39L9.17 11.36Z" fill="#EA6E24"/>
<path d="M23.09 11.36H10.91C9.92947 12.2555 9.14713 13.3462 8.61324 14.5621C8.07936 15.778 7.80576 17.0921 7.81 18.42C7.79414 19.6426 8.01928 20.8564 8.47255 21.992C8.92583 23.1277 9.59837 24.1629 10.4518 25.0385C11.3051 25.9142 12.3227 26.6132 13.4462 27.0956C14.5698 27.578 15.7774 27.8343 17 27.85C18.2226 27.8343 19.4302 27.578 20.5538 27.0956C21.6773 26.6132 22.6949 25.9142 23.5482 25.0385C24.4016 24.1629 25.0742 23.1277 25.5275 21.992C25.9807 20.8564 26.2059 19.6426 26.19 18.42C26.1942 17.0921 25.9206 15.778 25.3868 14.5621C24.8529 13.3462 24.0705 12.2555 23.09 11.36V11.36Z" fill="#8C1B1D"/>
<path d="M10.55 11.36C9.2885 12.6332 8.43201 14.2512 8.08841 16.0102C7.74482 17.7693 7.9295 19.5907 8.61919 21.245C9.30888 22.8993 10.4727 24.3124 11.9641 25.3065C13.4555 26.3005 15.2077 26.8309 17 26.8309C18.7923 26.8309 20.5445 26.3005 22.0359 25.3065C23.5273 24.3124 24.6911 22.8993 25.3808 21.245C26.0705 19.5907 26.2552 17.7693 25.9116 16.0102C25.568 14.2512 24.7115 12.6332 23.45 11.36H10.55Z" fill="#9E2224"/>
<path d="M14.4 23.09H12.11V15.32H11.26V13.32H14.4V23.09Z" fill="white"/>
<path d="M15.36 21.2V20.2L19.15 13.39H21.82V19.24H22.68V21.24H21.82V23.13H19.52V21.2H15.36ZM19.67 19.2V16.39H19.73L18.12 19.22L19.67 19.2Z" fill="white"/>
<path d="M16.97 5H12.29V10.88H16.97V5Z" fill="#EA6E24"/>
<path d="M7.67 5.51V10.37C7.67 10.5053 7.72373 10.635 7.81937 10.7306C7.91502 10.8263 8.04474 10.88 8.18 10.88H12.29V5H8.18C8.04474 5 7.91502 5.05373 7.81937 5.14938C7.72373 5.24502 7.67 5.37474 7.67 5.51Z" fill="#9E2224"/>
<path d="M21.65 5H16.97V10.88H21.65V5Z" fill="#FDAD1A"/>
<path d="M25.79 5H21.65V10.88H25.79C25.9165 10.8774 26.0371 10.8261 26.1266 10.7366C26.2161 10.6471 26.2674 10.5265 26.27 10.4V5.48C26.2674 5.3535 26.2161 5.23289 26.1266 5.14342C26.0371 5.05395 25.9165 5.00256 25.79 5V5Z" fill="#FFD75E"/>
<path d="M13.63 6.5H15.63V7.07H14.35V7.65H15.43V8.16H14.35V8.86H15.62V9.44H13.62L13.63 6.5Z" fill="white"/>
<path d="M18.06 6.5H18.71L19.86 8.35V6.51H20.59V9.44H19.9L18.77 7.65V9.43H18.05L18.06 6.5Z" fill="white"/>
<path d="M22.68 6.5H23.38V7.71H24.54V6.5H25.24V9.44H24.54V8.22H23.38V9.44H22.68V6.5Z" fill="white"/>
<path d="M8.69 6.5H9.4V7.65H9.59L10.23 6.5H11.13L10.13 7.84L11.22 9.44H10.28L9.59 8.23H9.4V9.44H8.69V6.5Z" fill="white"/>
</svg>
