<svg width="34" height="34" viewBox="0 0 34 34" fill="none" xmlns="http://www.w3.org/2000/svg">
<path d="M34 17C34 7.61116 26.3888 0 17 0V34C26.3888 34 34 26.3888 34 17Z" fill="#2449A4"/>
<path d="M17 0C7.61116 0 0 7.61116 0 17C0 26.3888 7.61116 34 17 34V0Z" fill="#E92227"/>
<path d="M24.25 9.23H9.81C9.70557 9.22457 9.60112 9.24046 9.50304 9.27672C9.40495 9.31298 9.31527 9.36883 9.23948 9.44088C9.16369 9.51293 9.10337 9.59966 9.06219 9.69579C9.02102 9.79192 8.99986 9.89542 9 10V14C9 14.2069 9.08218 14.4053 9.22846 14.5515C9.37474 14.6978 9.57313 14.78 9.78 14.78H13.89V28.16C13.89 28.2712 13.912 28.3812 13.9549 28.4838C13.9977 28.5863 14.0605 28.6794 14.1396 28.7575C14.2186 28.8357 14.3124 28.8973 14.4155 28.9389C14.5185 28.9806 14.6289 29.0013 14.74 29H19.26C19.3712 29.0013 19.4815 28.9806 19.5845 28.9389C19.6876 28.8973 19.7814 28.8357 19.8604 28.7575C19.9395 28.6794 20.0023 28.5863 20.0451 28.4838C20.088 28.3812 20.11 28.2712 20.11 28.16V14.78H24.22C24.3224 14.78 24.4239 14.7598 24.5185 14.7206C24.6131 14.6814 24.6991 14.624 24.7715 14.5515C24.844 14.4791 24.9014 14.3931 24.9406 14.2985C24.9798 14.2039 25 14.1024 25 14V10C25.0001 9.7992 24.9217 9.60632 24.7816 9.46248C24.6415 9.31864 24.4507 9.23521 24.25 9.23Z" fill="#EEEEEE"/>
</svg>
