<svg width="34" height="34" viewBox="0 0 34 34" fill="none" xmlns="http://www.w3.org/2000/svg">
<path d="M0 17C0 26.3888 7.61116 34 17 34C26.3888 34 34 26.3888 34 17C34 7.61116 26.3888 0 17 0C7.61116 0 0 7.61116 0 17Z" fill="#3B579D"/>
<path d="M20.74 33.5873V20.76H25.16L25.82 15.61H20.74V12.32C20.74 10.82 21.15 9.80998 23.28 9.80998H26V5.19998C24.6712 5.06213 23.3359 4.99537 22 4.99998C18.08 4.99998 15.4 7.39998 15.4 11.81V15.62H11V20.77H15.43V33.9285C15.9378 33.975 16.4521 33.9991 16.9718 34H17.0282C18.3033 33.9979 19.5454 33.8555 20.74 33.5873Z" fill="white"/>
</svg>
