<svg width="34" height="34" viewBox="0 0 34 34" fill="none" xmlns="http://www.w3.org/2000/svg">
<path d="M0 17C0 26.3888 7.61116 34 17 34C26.3888 34 34 26.3888 34 17C34 7.61116 26.3888 0 17 0C7.61116 0 0 7.61116 0 17Z" fill="url(#paint0_linear_2617_9396)"/>
<path d="M17 26C16.8452 26.0003 16.6932 25.9589 16.56 25.88C15.4 25.2 6.78 19.76 6.45 19.59C6.32969 19.54 6.22472 19.4591 6.1457 19.3555C6.06669 19.2519 6.01643 19.1293 6 19V11.33C5.99387 11.1896 6.02484 11.05 6.08979 10.9254C6.15475 10.8007 6.25139 10.6954 6.37 10.62H6.43C7.26 10.1 10.05 8.38 10.49 8.13C10.5925 8.05533 10.7136 8.01035 10.84 8C10.9514 8.00155 11.061 8.02893 11.16 8.08C11.16 8.08 15.06 10.65 15.66 10.88C16.0799 11.073 16.538 11.1687 17 11.16C17.5204 11.168 18.0338 11.0405 18.49 10.79C19.08 10.48 22.81 8.09 22.85 8.09C22.9441 8.03441 23.0507 8.00346 23.16 8C23.2793 7.99919 23.3967 8.03026 23.5 8.09C24 8.38 27.5 10.51 27.61 10.61C27.7315 10.6813 27.8318 10.7838 27.9003 10.9069C27.9689 11.03 28.0033 11.1691 28 11.31V19C27.9873 19.1354 27.939 19.265 27.8599 19.3757C27.7809 19.4863 27.674 19.5741 27.55 19.63C27.23 19.81 18.64 25.26 17.45 25.92C17.3098 25.9863 17.1544 26.0139 17 26" fill="url(#paint1_linear_2617_9396)"/>
<path d="M17 26C17.158 26.0006 17.3133 25.9592 17.45 25.88C18.61 25.2 27.23 19.76 27.55 19.59C27.6686 19.5375 27.7721 19.4559 27.8508 19.3528C27.9294 19.2496 27.9808 19.1283 28 19V11.33C27.9984 11.1993 27.9712 11.0702 27.92 10.95L17 17V26Z" fill="url(#paint2_linear_2617_9396)"/>
<path d="M16.92 25.89C16.7665 25.8902 16.6153 25.8524 16.48 25.78C15.33 25.11 6.8 19.72 6.48 19.55C6.3512 19.5 6.23844 19.4159 6.15387 19.3067C6.0693 19.1974 6.0161 19.0672 6 18.93V11.37C6.00287 11.2427 6.03002 11.1171 6.08 11L16.92 17V25.89Z" fill="url(#paint3_linear_2617_9396)"/>
<path d="M11.65 13.83H12.65V18.67H14.38V19.67H11.65V13.87" fill="white"/>
<path d="M16.68 15.28C16.9426 15.2753 17.2026 15.3326 17.439 15.4473C17.6753 15.562 17.8812 15.7308 18.04 15.94V15.36H19V19.63H18V19.06C17.8396 19.2675 17.6333 19.435 17.3974 19.5495C17.1615 19.664 16.9022 19.7223 16.64 19.72C16.0811 19.689 15.5571 19.4381 15.1824 19.0222C14.8077 18.6063 14.6127 18.0591 14.64 17.5C14.6127 16.9409 14.8077 16.3937 15.1824 15.9778C15.5571 15.5618 16.0811 15.311 16.64 15.28H16.68ZM16.81 16.13C16.6353 16.1308 16.4627 16.1677 16.3029 16.2383C16.1431 16.3089 15.9995 16.4117 15.8813 16.5403C15.763 16.6689 15.6726 16.8205 15.6156 16.9856C15.5586 17.1507 15.5362 17.3258 15.55 17.5C15.5377 17.6738 15.5611 17.8483 15.6186 18.0128C15.6762 18.1773 15.7667 18.3283 15.8847 18.4566C16.0027 18.5849 16.1456 18.6877 16.3047 18.7588C16.4638 18.8299 16.6357 18.8677 16.81 18.87C16.9872 18.8733 17.1632 18.8396 17.3265 18.7708C17.4899 18.7021 17.6371 18.5999 17.7586 18.4708C17.8801 18.3418 17.9732 18.1888 18.032 18.0216C18.0908 17.8544 18.114 17.6767 18.1 17.5C18.1137 17.3267 18.0917 17.1524 18.0353 16.9879C17.9789 16.8235 17.8893 16.6723 17.7721 16.5439C17.6549 16.4155 17.5126 16.3125 17.354 16.2413C17.1954 16.1701 17.0238 16.1322 16.85 16.13" fill="white"/>
<path d="M19.69 18.89L21.91 16.22H19.73V15.36H23.12V16.12L20.91 18.78H23.17V19.63H19.69V18.89" fill="white"/>
<defs>
<linearGradient id="paint0_linear_2617_9396" x1="17" y1="2.88" x2="17" y2="36.88" gradientUnits="userSpaceOnUse">
<stop offset="0.09" stop-color="#5B8BEB"/>
<stop offset="0.7" stop-color="#2742A2"/>
<stop offset="1" stop-color="#112283"/>
</linearGradient>
<linearGradient id="paint1_linear_2617_9396" x1="5.879" y1="16.9033" x2="27.6577" y2="16.7362" gradientUnits="userSpaceOnUse">
<stop stop-color="#FFB900"/>
<stop offset="0.34" stop-color="#F38000"/>
<stop offset="0.57" stop-color="#F83C72"/>
<stop offset="0.78" stop-color="#FC1CBE"/>
<stop offset="0.93" stop-color="#FE08ED"/>
<stop offset="1" stop-color="#FF00FF"/>
</linearGradient>
<linearGradient id="paint2_linear_2617_9396" x1="11.9503" y1="24.0886" x2="34.2303" y2="11.7232" gradientUnits="userSpaceOnUse">
<stop stop-color="#EE0A3F"/>
<stop offset="1" stop-color="#EE0A3F" stop-opacity="0"/>
</linearGradient>
<linearGradient id="paint3_linear_2617_9396" x1="14.1936" y1="20.7683" x2="3.394" y2="12.1176" gradientUnits="userSpaceOnUse">
<stop stop-color="#ED6600"/>
<stop offset="1" stop-color="#F98200"/>
</linearGradient>
</defs>
</svg>
