<svg width="34" height="34" viewBox="0 0 34 34" fill="none" xmlns="http://www.w3.org/2000/svg">
<path d="M0 17C0 26.3888 7.61116 34 17 34C26.3888 34 34 26.3888 34 17C34 7.61116 26.3888 0 17 0C7.61116 0 0 7.61116 0 17Z" fill="#EEEEF6"/>
<path fill-rule="evenodd" clip-rule="evenodd" d="M26 9.45C26 9.45 26 9.38 26 9.34V9.18C26.0053 8.89896 25.9552 8.61963 25.8525 8.35796C25.7498 8.09629 25.5966 7.85741 25.4016 7.65497C25.2066 7.45253 24.9736 7.29049 24.716 7.17811C24.4583 7.06573 24.181 7.0052 23.9 7H11.11C10.8281 7.0039 10.5498 7.06346 10.291 7.17527C10.0322 7.28707 9.79799 7.4489 9.60192 7.65148C9.40586 7.85405 9.25174 8.09337 9.14845 8.35568C9.04515 8.61799 8.9947 8.89813 9 9.18V9.34C8.99469 9.62104 9.04481 9.90037 9.14749 10.162C9.25016 10.4237 9.40338 10.6626 9.59839 10.865C9.7934 11.0675 10.0264 11.2295 10.284 11.3419C10.5417 11.4543 10.819 11.5148 11.1 11.52H18.72L8.58 23.06C8.18195 23.5208 7.97565 24.1166 8.00356 24.7249C8.03146 25.3331 8.29144 25.9076 8.73 26.33L8.8 26.39C9.02122 26.6062 9.28728 26.7711 9.57933 26.8731C9.87138 26.9751 10.1823 27.0115 10.49 26.98H10.64H23.43C23.711 26.9748 23.9883 26.9143 24.246 26.8019C24.5036 26.6895 24.7366 26.5275 24.9316 26.325C25.1266 26.1226 25.2798 25.8837 25.3825 25.622C25.4852 25.3604 25.5353 25.081 25.53 24.8V24.64C25.5353 24.359 25.4852 24.0796 25.3825 23.818C25.2798 23.5563 25.1266 23.3174 24.9316 23.115C24.7366 22.9125 24.5036 22.7505 24.246 22.6381C23.9883 22.5257 23.711 22.4652 23.43 22.46H15.27L25.42 10.94C25.7808 10.5259 25.9859 9.99902 26 9.45Z" fill="url(#paint0_linear_2647_10287)"/>
<defs>
<linearGradient id="paint0_linear_2647_10287" x1="8.38" y1="25.89" x2="25.47" y2="8.8" gradientUnits="userSpaceOnUse">
<stop offset="0.02" stop-color="#4C3281"/>
<stop offset="0.16" stop-color="#7135B2"/>
<stop offset="0.31" stop-color="#8E2EA6"/>
<stop offset="0.53" stop-color="#CB1F80"/>
<stop offset="0.65" stop-color="#ED186D"/>
<stop offset="0.75" stop-color="#FF3752"/>
<stop offset="0.86" stop-color="#FF5247"/>
<stop offset="1" stop-color="#FFBA1A"/>
</linearGradient>
</defs>
</svg>
