<svg width="34" height="34" viewBox="0 0 34 34" fill="none" xmlns="http://www.w3.org/2000/svg">
<path d="M0 17C0 26.3888 7.61116 34 17 34C26.3888 34 34 26.3888 34 17C34 7.61116 26.3888 0 17 0C7.61116 0 0 7.61116 0 17Z" fill="#EEEEEE"/>
<path d="M6.64 26H10.45V16.73L5 12.64V24.36C4.99867 24.5757 5.04019 24.7896 5.12213 24.9892C5.20408 25.1887 5.32483 25.3701 5.47739 25.5226C5.62994 25.6752 5.81126 25.7959 6.01083 25.8779C6.21041 25.9598 6.42426 26.0013 6.64 26V26Z" fill="#4285F4"/>
<path d="M23.55 26H27.36C27.5757 26.0013 27.7896 25.9598 27.9892 25.8779C28.1887 25.7959 28.3701 25.6752 28.5226 25.5226C28.6752 25.3701 28.7959 25.1887 28.8779 24.9892C28.9598 24.7896 29.0013 24.5757 29 24.36V12.64L23.55 16.73V26Z" fill="#34A853"/>
<path d="M23.55 9.64V16.73L29 12.64V10.45C29.0051 9.99145 28.882 9.54059 28.6445 9.14831C28.407 8.75602 28.0646 8.43794 27.6559 8.22995C27.2472 8.02196 26.7885 7.93235 26.3316 7.97123C25.8746 8.01012 25.4377 8.17594 25.07 8.45L23.55 9.64Z" fill="#FBBC04"/>
<path d="M10.45 16.73V9.64L17 14.55L23.55 9.64V16.73L17 21.64L10.45 16.73Z" fill="#EA4335"/>
<path d="M5 10.45V12.64L10.45 16.73V9.64001L8.93 8.49001C8.56334 8.21193 8.12577 8.04275 7.66742 8.00182C7.20906 7.96089 6.74845 8.04988 6.33832 8.2586C5.9282 8.46731 5.58515 8.78732 5.34846 9.18196C5.11176 9.5766 4.991 10.0299 5 10.49V10.45Z" fill="#C5221F"/>
</svg>
